  0
SECTION
  2
HEADER
  9
$ACADVER
  1
AC1009
  9
$DWGCODEPAGE
  3
ansi_1252
  9
$INSBASE
 10
0.0
 20
0.0
 30
0.0
  9
$EXTMIN
 10
-218.2648155737705
 20
-710.0
 30
0.0
  9
$EXTMAX
 10
195.3396871208588
 20
45.0
 30
0.0
  9
$LIMMIN
 10
0.0
 20
0.0
  9
$LIMMAX
 10
12.0
 20
9.0
  9
$ORTHOMODE
 70
     0
  9
$REGENMODE
 70
     1
  9
$FILLMODE
 70
     1
  9
$QTEXTMODE
 70
     0
  9
$MIRRTEXT
 70
     1
  9
$DRAGMODE
 70
     2
  9
$LTSCALE
 40
1.0
  9
$OSMODE
 70
    37
  9
$ATTMODE
 70
     1
  9
$TEXTSIZE
 40
0.2
  9
$TRACEWID
 40
0.05
  9
$TEXTSTYLE
  7
STANDARD
  9
$CLAYER
  8
0
  9
$CELTYPE
  6
BYLAYER
  9
$CECOLOR
 62
   256
  9
$DIMSCALE
 40
1.0
  9
$DIMASZ
 40
0.18
  9
$DIMEXO
 40
0.0625
  9
$DIMDLI
 40
0.38
  9
$DIMRND
 40
0.0
  9
$DIMDLE
 40
0.0
  9
$DIMEXE
 40
0.18
  9
$DIMTP
 40
0.0
  9
$DIMTM
 40
0.0
  9
$DIMTXT
 40
0.18
  9
$DIMCEN
 40
0.09
  9
$DIMTSZ
 40
0.0
  9
$DIMTOL
 70
     0
  9
$DIMLIM
 70
     0
  9
$DIMTIH
 70
     1
  9
$DIMTOH
 70
     1
  9
$DIMSE1
 70
     0
  9
$DIMSE2
 70
     0
  9
$DIMTAD
 70
     0
  9
$DIMZIN
 70
     0
  9
$DIMBLK
  1

  9
$DIMASO
 70
     1
  9
$DIMSHO
 70
     1
  9
$DIMPOST
  1

  9
$DIMAPOST
  1

  9
$DIMALT
 70
     0
  9
$DIMALTD
 70
     2
  9
$DIMALTF
 40
25.4
  9
$DIMLFAC
 40
1.0
  9
$DIMTOFL
 70
     0
  9
$DIMTVP
 40
0.0
  9
$DIMTIX
 70
     0
  9
$DIMSOXD
 70
     0
  9
$DIMSAH
 70
     0
  9
$DIMBLK1
  1

  9
$DIMBLK2
  1

  9
$DIMSTYLE
  2
STANDARD
  9
$DIMCLRD
 70
     0
  9
$DIMCLRE
 70
     0
  9
$DIMCLRT
 70
     0
  9
$DIMTFAC
 40
1.0
  9
$DIMGAP
 40
0.09
  9
$LUNITS
 70
     2
  9
$LUPREC
 70
     4
  9
$SKETCHINC
 40
0.1
  9
$FILLETRAD
 40
0.5
  9
$AUNITS
 70
     0
  9
$AUPREC
 70
     0
  9
$MENU
  1
.
  9
$ELEVATION
 40
0.0
  9
$PELEVATION
 40
0.0
  9
$THICKNESS
 40
0.0
  9
$LIMCHECK
 70
     0
  9
$CHAMFERA
 40
0.0
  9
$CHAMFERB
 40
0.0
  9
$SKPOLY
 70
     0
  9
$TDCREATE
 40
2458211.644019572
  9
$TDUPDATE
 40
2458211.644044178
  9
$TDINDWG
 40
0.0000000116
  9
$TDUSRTIMER
 40
0.0000000116
  9
$USRTIMER
 70
     1
  9
$ANGBASE
 50
0.0
  9
$ANGDIR
 70
     0
  9
$PDMODE
 70
     0
  9
$PDSIZE
 40
0.0
  9
$PLINEWID
 40
0.0
  9
$COORDS
 70
     1
  9
$SPLFRAME
 70
     0
  9
$SPLINETYPE
 70
     6
  9
$SPLINESEGS
 70
     8
  9
$ATTDIA
 70
     0
  9
$ATTREQ
 70
     1
  9
$HANDLING
 70
     1
  9
$HANDSEED
  5
17A
  9
$SURFTAB1
 70
     6
  9
$SURFTAB2
 70
     6
  9
$SURFTYPE
 70
     6
  9
$SURFU
 70
     6
  9
$SURFV
 70
     6
  9
$UCSNAME
  2

  9
$UCSORG
 10
0.0
 20
0.0
 30
0.0
  9
$UCSXDIR
 10
1.0
 20
0.0
 30
0.0
  9
$UCSYDIR
 10
0.0
 20
1.0
 30
0.0
  9
$PUCSNAME
  2

  9
$PUCSORG
 10
0.0
 20
0.0
 30
0.0
  9
$PUCSXDIR
 10
1.0
 20
0.0
 30
0.0
  9
$PUCSYDIR
 10
0.0
 20
1.0
 30
0.0
  9
$USERI1
 70
     0
  9
$USERI2
 70
     0
  9
$USERI3
 70
     0
  9
$USERI4
 70
     0
  9
$USERI5
 70
     0
  9
$USERR1
 40
0.0
  9
$USERR2
 40
0.0
  9
$USERR3
 40
0.0
  9
$USERR4
 40
0.0
  9
$USERR5
 40
0.0
  9
$WORLDVIEW
 70
     1
  9
$SHADEDGE
 70
     3
  9
$SHADEDIF
 70
    70
  9
$TILEMODE
 70
     1
  9
$MAXACTVP
 70
    64
  9
$PLIMCHECK
 70
     0
  9
$PEXTMIN
 10
1.000000000000000E+20
 20
1.000000000000000E+20
 30
1.000000000000000E+20
  9
$PEXTMAX
 10
-1.000000000000000E+20
 20
-1.000000000000000E+20
 30
-1.000000000000000E+20
  9
$PLIMMIN
 10
0.0
 20
0.0
  9
$PLIMMAX
 10
12.0
 20
9.0
  9
$UNITMODE
 70
     0
  9
$VISRETAIN
 70
     1
  9
$PLINEGEN
 70
     0
  9
$PSLTSCALE
 70
     1
  0
ENDSEC
  0
SECTION
  2
TABLES
  0
TABLE
  2
VPORT
 70
     1
  0
VPORT
  2
*ACTIVE
 70
     0
 10
0.0
 20
0.0
 11
1.0
 21
1.0
 12
-11.46256422645587
 22
-332.5
 13
0.0
 23
0.0
 14
0.5
 24
0.5
 15
0.5
 25
0.5
 16
0.0
 26
0.0
 36
1.0
 17
0.0
 27
0.0
 37
0.0
 40
770.1
 41
0.54782053337037
 42
50.0
 43
0.0
 44
0.0
 50
0.0
 51
0.0
 71
     0
 72
   100
 73
     1
 74
     3
 75
     0
 76
     0
 77
     0
 78
     0
  0
ENDTAB
  0
TABLE
  2
LTYPE
 70
     1
  0
LTYPE
  2
CONTINUOUS
 70
     0
  3
Solid line
 72
    65
 73
     0
 40
0.0
  0
ENDTAB
  0
TABLE
  2
LAYER
 70
     1
  0
LAYER
  2
0
 70
     0
 62
     7
  6
CONTINUOUS
  0
ENDTAB
  0
TABLE
  2
STYLE
 70
     1
  0
STYLE
  2
STANDARD
 70
     0
 40
0.0
 41
1.0
 50
0.0
 71
     0
 42
0.2
  3
txt
  4

  0
ENDTAB
  0
TABLE
  2
VIEW
 70
     0
  0
ENDTAB
  0
TABLE
  2
UCS
 70
     0
  0
ENDTAB
  0
TABLE
  2
APPID
 70
     1
  0
APPID
  2
ACAD
 70
     0
  0
ENDTAB
  0
TABLE
  2
DIMSTYLE
 70
     1
  0
DIMSTYLE
  2
STANDARD
 70
     0
  3

  4

  5

  6

  7

 40
1.0
 41
0.18
 42
0.0625
 43
0.38
 44
0.18
 45
0.0
 46
0.0
 47
0.0
 48
0.0
140
0.18
141
0.09
142
0.0
143
25.4
144
1.0
145
0.0
146
1.0
147
0.09
 71
     0
 72
     0
 73
     1
 74
     1
 75
     0
 76
     0
 77
     0
 78
     0
170
     0
171
     2
172
     0
173
     0
174
     0
175
     0
176
     0
177
     0
178
     0
  0
ENDTAB
  0
ENDSEC
  0
SECTION
  2
BLOCKS
  0
BLOCK
  8
0
  2
$MODEL_SPACE
 70
     0
 10
0.0
 20
0.0
 30
0.0
  3
$MODEL_SPACE
  1

  0
ENDBLK
  5
21
  8
0
  0
BLOCK
 67
     1
  8
0
  2
$PAPER_SPACE
 70
     0
 10
0.0
 20
0.0
 30
0.0
  3
$PAPER_SPACE
  1

  0
ENDBLK
  5
1D
 67
     1
  8
0
  0
ENDSEC
  0
SECTION
  2
ENTITIES
  0
LINE
  5
6A
  8
0
 10
-10.0
 20
0.0
 30
0.0
 11
-10.0
 21
-12.0
 31
0.0
  0
LINE
  5
6B
  8
0
  6
BYBLOCK
 62
     0
 10
121.05131336636
 20
-184.8329432840096
 30
0.0
 11
107.0959775109299
 21
-190.332816115462
 31
0.0
  0
LINE
  5
6C
  8
0
  6
BYBLOCK
 62
     0
 10
107.0959775109299
 20
-190.332816115462
 30
0.0
 11
111.4958757760919
 21
-201.4970847998061
 31
0.0
  0
LINE
  5
6D
  8
0
  6
BYBLOCK
 62
     0
 10
111.4958757760919
 20
-201.4970847998061
 30
0.0
 11
125.4512116315219
 21
-195.9972119683537
 31
0.0
  0
LINE
  5
6E
  8
0
  6
BYBLOCK
 62
     0
 10
125.4512116315219
 20
-195.9972119683537
 30
0.0
 11
121.05131336636
 21
-184.8329432840096
 31
0.0
  0
ARC
  5
6F
  8
0
 10
-129.0000000000001
 20
-704.0
 30
0.0
 40
5.999999999999947
 50
179.9999999999989
 51
270.0000000000005
  0
ARC
  5
70
  8
0
 10
21.0
 20
-437.3333333333334
 30
0.0
 40
6.000000000000001
 50
180.0
 51
270.0
  0
LINE
  5
71
  8
0
 10
21.00000000000001
 20
-443.3333333333333
 30
0.0
 11
69.0
 21
-443.3333333333334
 31
0.0
  0
LINE
  5
72
  8
0
  6
BYBLOCK
 62
     0
 10
55.56115901788909
 20
-30.98553205307383
 30
0.0
 11
58.5611590178891
 21
-30.98553205307383
 31
0.0
  0
LINE
  5
73
  8
0
  6
BYBLOCK
 62
     0
 10
58.5611590178891
 20
-30.98553205307383
 30
0.0
 11
58.56115901788909
 21
-9.985532053073825
 31
0.0
  0
LINE
  5
74
  8
0
  6
BYBLOCK
 62
     0
 10
58.56115901788909
 20
-9.985532053073825
 30
0.0
 11
37.56115901788909
 21
-9.985532053073825
 31
0.0
  0
LINE
  5
75
  8
0
  6
BYBLOCK
 62
     0
 10
37.56115901788909
 20
-9.985532053073825
 30
0.0
 11
37.56115901788908
 21
-30.98553205307383
 31
0.0
  0
LINE
  5
76
  8
0
  6
BYBLOCK
 62
     0
 10
37.56115901788908
 20
-30.98553205307383
 30
0.0
 11
40.56115901788909
 21
-30.98553205307383
 31
0.0
  0
LINE
  5
77
  8
0
  6
BYBLOCK
 62
     0
 10
40.56115901788909
 20
-30.98553205307383
 30
0.0
 11
40.56115901788909
 21
-36.98553205307385
 31
0.0
  0
LINE
  5
78
  8
0
  6
BYBLOCK
 62
     0
 10
40.56115901788909
 20
-36.98553205307385
 30
0.0
 11
55.56115901788909
 21
-36.98553205307385
 31
0.0
  0
LINE
  5
79
  8
0
  6
BYBLOCK
 62
     0
 10
55.56115901788909
 20
-36.98553205307385
 30
0.0
 11
55.56115901788909
 21
-30.98553205307383
 31
0.0
  0
LINE
  5
7A
  8
0
  6
BYBLOCK
 62
     0
 10
54.09598271499973
 20
-72.74305668542019
 30
0.0
 11
57.09598271499974
 21
-72.74305668542019
 31
0.0
  0
LINE
  5
7B
  8
0
  6
BYBLOCK
 62
     0
 10
57.09598271499974
 20
-72.74305668542019
 30
0.0
 11
57.09598271499973
 21
-51.74305668542019
 31
0.0
  0
LINE
  5
7C
  8
0
  6
BYBLOCK
 62
     0
 10
57.09598271499973
 20
-51.74305668542019
 30
0.0
 11
36.09598271499973
 21
-51.74305668542019
 31
0.0
  0
LINE
  5
7D
  8
0
  6
BYBLOCK
 62
     0
 10
36.09598271499973
 20
-51.74305668542019
 30
0.0
 11
36.09598271499972
 21
-72.74305668542019
 31
0.0
  0
LINE
  5
7E
  8
0
  6
BYBLOCK
 62
     0
 10
36.09598271499972
 20
-72.74305668542019
 30
0.0
 11
39.09598271499973
 21
-72.74305668542019
 31
0.0
  0
LINE
  5
7F
  8
0
  6
BYBLOCK
 62
     0
 10
39.09598271499973
 20
-72.74305668542019
 30
0.0
 11
39.09598271499973
 21
-78.74305668542021
 31
0.0
  0
LINE
  5
80
  8
0
  6
BYBLOCK
 62
     0
 10
39.09598271499973
 20
-78.74305668542021
 30
0.0
 11
54.09598271499973
 21
-78.74305668542021
 31
0.0
  0
LINE
  5
81
  8
0
  6
BYBLOCK
 62
     0
 10
54.09598271499973
 20
-78.74305668542021
 30
0.0
 11
54.09598271499973
 21
-72.74305668542019
 31
0.0
  0
ARC
  5
82
  8
0
  6
BYBLOCK
 62
     0
 10
186.5288622700295
 20
-90.49618356927806
 30
0.0
 40
6.000000000000017
 50
358.0487327499957
 51
56.18275505639191
  0
LINE
  5
83
  8
0
  6
BYBLOCK
 62
     0
 10
192.5253831651155
 20
-90.7004803015014
 30
0.0
 11
188.9741807146591
 21
-194.9354304403996
 31
0.0
  0
ARC
  5
84
  8
0
  6
BYBLOCK
 62
     0
 10
182.9776598195731
 20
-194.7311337081763
 30
0.0
 40
6.000000000000001
 50
226.9366423108287
 51
358.0487327499956
  0
LINE
  5
85
  8
0
  6
BYBLOCK
 62
     0
 10
178.8808197752386
 20
-199.114728312053
 30
0.0
 11
102.6826753914374
 21
-127.9011154155844
 31
0.0
  0
ARC
  5
86
  8
0
  6
BYBLOCK
 62
     0
 10
106.7795154357718
 20
-123.5175208117076
 30
0.0
 40
6.000000000000004
 50
168.8026200044323
 51
226.9366423108285
  0
LINE
  5
87
  8
0
  6
BYBLOCK
 62
     0
 10
100.893731218485
 20
-122.3523838465666
 30
0.0
 11
116.0024017037917
 21
-46.02970509965854
 31
0.0
  0
ARC
  5
88
  8
0
  6
BYBLOCK
 62
     0
 10
121.8881859210785
 20
-47.19484206479954
 30
0.0
 40
5.999999999999998
 50
56.18275505639169
 51
168.8026200044322
  0
LINE
  5
89
  8
0
  6
BYBLOCK
 62
     0
 10
125.227460126319
 20
-42.20994008158908
 30
0.0
 11
189.8681364752699
 21
-85.51128158606758
 31
0.0
  0
CIRCLE
  5
8A
  8
0
  6
BYBLOCK
 62
     0
 10
178.7800137659624
 20
-93.10586307837852
 30
0.0
 40
6.400000000000006
  0
CIRCLE
  5
8B
  8
0
  6
BYBLOCK
 62
     0
 10
163.6579692610802
 20
-148.0724326456378
 30
0.0
 40
7.5
  0
CIRCLE
  5
8C
  8
0
  6
BYBLOCK
 62
     0
 10
114.1050281740152
 20
-119.8854493089651
 30
0.0
 40
6.400000000000006
  0
CIRCLE
  5
8D
  8
0
  6
BYBLOCK
 62
     0
 10
129.2270726788975
 20
-64.91887974170574
 30
0.0
 40
7.499999999999999
  0
CIRCLE
  5
8E
  8
0
  6
BYBLOCK
 62
     0
 10
146.4425209699888
 20
-106.4956561936718
 30
0.0
 40
5.0
  0
CIRCLE
  5
8F
  8
0
  6
BYBLOCK
 62
     0
 10
181.4492499231629
 20
-191.0398934037978
 30
0.0
 40
1.500000000000004
  0
CIRCLE
  5
90
  8
0
  6
BYBLOCK
 62
     0
 10
157.149267934214
 20
-296.8826394450242
 30
0.0
 40
7.5
  0
CIRCLE
  5
91
  8
0
  6
BYBLOCK
 62
     0
 10
124.1500309454997
 20
-213.1506243124438
 30
0.0
 40
7.5
  0
CIRCLE
  5
92
  8
0
  6
BYBLOCK
 62
     0
 10
140.6496494398568
 20
-255.016631878734
 30
0.0
 40
6.000000000000001
  0
CIRCLE
  5
93
  8
0
  6
BYBLOCK
 62
     0
 10
108.08719911052
 20
-267.8496684854562
 30
0.0
 40
6.400000000000006
  0
CIRCLE
  5
94
  8
0
  6
BYBLOCK
 62
     0
 10
173.2120997691937
 20
-242.1835952720118
 30
0.0
 40
6.400000000000006
  0
CIRCLE
  5
95
  8
0
  6
BYBLOCK
 62
     0
 10
109.1779441787211
 20
-175.1605642346621
 30
0.0
 40
1.500000000000004
  0
ARC
  5
96
  8
0
  6
BYBLOCK
 62
     0
 10
181.6936114434239
 20
-238.3454001458289
 30
0.0
 40
5.000000000000031
 50
347.8195986299226
 51
45.95362093631882
  0
LINE
  5
97
  8
0
  6
BYBLOCK
 62
     0
 10
186.5810520583955
 20
-239.400352388884
 30
0.0
 11
169.7314419617014
 21
-317.4621502334271
 31
0.0
  0
ARC
  5
98
  8
0
  6
BYBLOCK
 62
     0
 10
164.84400134673
 20
-316.407197990372
 30
0.0
 40
4.999999999999978
 50
235.199733681882
 51
347.8195986299225
  0
LINE
  5
99
  8
0
  6
BYBLOCK
 62
     0
 10
161.9904144243054
 20
-320.5129307722475
 30
0.0
 11
96.41398952807106
 21
-274.935676127398
 31
0.0
  0
ARC
  5
9A
  8
0
  6
BYBLOCK
 62
     0
 10
99.26757645049558
 20
-270.8299433455224
 30
0.0
 40
4.999999999999986
 50
177.0657113754857
 51
235.1997336818822
  0
LINE
  5
9B
  8
0
  6
BYBLOCK
 62
     0
 10
94.27413194534475
 20
-270.5739902756467
 30
0.0
 11
99.1910551684194
 21
-174.6486580949106
 31
0.0
  0
ARC
  5
9C
  8
0
  6
BYBLOCK
 62
     0
 10
109.1779441787211
 20
-175.1605642346621
 30
0.0
 40
10.00000000000001
 50
45.95362093631894
 51
177.0657113754861
  0
LINE
  5
9D
  8
0
  6
BYBLOCK
 62
     0
 10
116.1303484277734
 20
-167.9727916201618
 30
0.0
 11
185.1698135679501
 21
-234.7515138385788
 31
0.0
  0
LINE
  5
9E
  8
0
  6
BYBLOCK
 62
     0
 10
116.694282673341
 20
-369.7338925865541
 30
0.0
 11
116.694282673341
 21
-385.7338925865541
 31
0.0
  0
LINE
  5
9F
  8
0
  6
BYBLOCK
 62
     0
 10
116.694282673341
 20
-385.7338925865541
 30
0.0
 11
128.694282673341
 21
-385.7338925865541
 31
0.0
  0
LINE
  5
A0
  8
0
  6
BYBLOCK
 62
     0
 10
128.694282673341
 20
-385.7338925865541
 30
0.0
 11
128.694282673341
 21
-394.7338925865541
 31
0.0
  0
LINE
  5
A1
  8
0
  6
BYBLOCK
 62
     0
 10
128.694282673341
 20
-394.7338925865541
 30
0.0
 11
166.694282673341
 21
-394.7338925865541
 31
0.0
  0
LINE
  5
A2
  8
0
  6
BYBLOCK
 62
     0
 10
166.694282673341
 20
-394.7338925865541
 30
0.0
 11
166.694282673341
 21
-385.7338925865541
 31
0.0
  0
LINE
  5
A3
  8
0
  6
BYBLOCK
 62
     0
 10
166.694282673341
 20
-385.7338925865541
 30
0.0
 11
178.694282673341
 21
-385.7338925865541
 31
0.0
  0
LINE
  5
A4
  8
0
  6
BYBLOCK
 62
     0
 10
178.694282673341
 20
-385.7338925865541
 30
0.0
 11
178.694282673341
 21
-369.7338925865541
 31
0.0
  0
LINE
  5
A5
  8
0
  6
BYBLOCK
 62
     0
 10
178.694282673341
 20
-369.7338925865541
 30
0.0
 11
166.694282673341
 21
-369.7338925865541
 31
0.0
  0
LINE
  5
A6
  8
0
  6
BYBLOCK
 62
     0
 10
166.694282673341
 20
-369.7338925865541
 30
0.0
 11
166.694282673341
 21
-354.2338925166094
 31
0.0
  0
LINE
  5
A7
  8
0
  6
BYBLOCK
 62
     0
 10
166.694282673341
 20
-354.2338925166094
 30
0.0
 11
128.694282673341
 21
-354.2338925166094
 31
0.0
  0
LINE
  5
A8
  8
0
  6
BYBLOCK
 62
     0
 10
128.694282673341
 20
-354.2338925166094
 30
0.0
 11
128.694282673341
 21
-369.7338925865541
 31
0.0
  0
LINE
  5
A9
  8
0
  6
BYBLOCK
 62
     0
 10
128.694282673341
 20
-369.7338925865541
 30
0.0
 11
116.694282673341
 21
-369.7338925865541
 31
0.0
  0
LINE
  5
AA
  8
0
  6
BYBLOCK
 62
     0
 10
116.694282673341
 20
-418.6393629658235
 30
0.0
 11
116.694282673341
 21
-434.6393629658235
 31
0.0
  0
LINE
  5
AB
  8
0
  6
BYBLOCK
 62
     0
 10
116.694282673341
 20
-434.6393629658235
 30
0.0
 11
128.694282673341
 21
-434.6393629658235
 31
0.0
  0
LINE
  5
AC
  8
0
  6
BYBLOCK
 62
     0
 10
128.694282673341
 20
-434.6393629658235
 30
0.0
 11
128.694282673341
 21
-443.6393629658235
 31
0.0
  0
LINE
  5
AD
  8
0
  6
BYBLOCK
 62
     0
 10
128.694282673341
 20
-443.6393629658235
 30
0.0
 11
166.694282673341
 21
-443.6393629658235
 31
0.0
  0
LINE
  5
AE
  8
0
  6
BYBLOCK
 62
     0
 10
166.694282673341
 20
-443.6393629658235
 30
0.0
 11
166.694282673341
 21
-434.6393629658235
 31
0.0
  0
LINE
  5
AF
  8
0
  6
BYBLOCK
 62
     0
 10
166.694282673341
 20
-434.6393629658235
 30
0.0
 11
178.694282673341
 21
-434.6393629658235
 31
0.0
  0
LINE
  5
B0
  8
0
  6
BYBLOCK
 62
     0
 10
178.694282673341
 20
-434.6393629658235
 30
0.0
 11
178.694282673341
 21
-418.6393629658235
 31
0.0
  0
LINE
  5
B1
  8
0
  6
BYBLOCK
 62
     0
 10
178.694282673341
 20
-418.6393629658235
 30
0.0
 11
166.694282673341
 21
-418.6393629658235
 31
0.0
  0
LINE
  5
B2
  8
0
  6
BYBLOCK
 62
     0
 10
166.694282673341
 20
-418.6393629658235
 30
0.0
 11
166.694282673341
 21
-403.1393628958788
 31
0.0
  0
LINE
  5
B3
  8
0
  6
BYBLOCK
 62
     0
 10
166.694282673341
 20
-403.1393628958788
 30
0.0
 11
128.694282673341
 21
-403.1393628958788
 31
0.0
  0
LINE
  5
B4
  8
0
  6
BYBLOCK
 62
     0
 10
128.694282673341
 20
-403.1393628958788
 30
0.0
 11
128.694282673341
 21
-418.6393629658235
 31
0.0
  0
LINE
  5
B5
  8
0
  6
BYBLOCK
 62
     0
 10
128.694282673341
 20
-418.6393629658235
 30
0.0
 11
116.694282673341
 21
-418.6393629658235
 31
0.0
  0
CIRCLE
  5
B6
  8
0
  6
BYBLOCK
 62
     0
 10
178.8183296332395
 20
-505.6557508616376
 30
0.0
 40
7.5
  0
ARC
  5
B7
  8
0
  6
BYBLOCK
 62
     0
 10
190.3396871208587
 20
-513.1557508616376
 30
0.0
 40
4.999999999999996
 50
269.9999999999997
 51
0.0
  0
LINE
  5
B8
  8
0
  6
BYBLOCK
 62
     0
 10
190.3396871208587
 20
-518.1557508616376
 30
0.0
 11
190.3396871208587
 21
-574.1557508616376
 31
0.0
  0
ARC
  5
B9
  8
0
  6
BYBLOCK
 62
     0
 10
190.3396871208587
 20
-579.1557508616376
 30
0.0
 40
5.000000000000017
 50
0.0
 51
90.0
  0
LINE
  5
BA
  8
0
  6
BYBLOCK
 62
     0
 10
195.3396871208587
 20
-579.1557508616376
 30
0.0
 11
195.3396871208588
 21
-594.1557508616376
 31
0.0
  0
ARC
  5
BB
  8
0
  6
BYBLOCK
 62
     0
 10
190.3396871208588
 20
-594.1557508616376
 30
0.0
 40
5.0
 50
270.0
 51
0.0
  0
LINE
  5
BC
  8
0
  6
BYBLOCK
 62
     0
 10
190.3396871208588
 20
-599.1557508616376
 30
0.0
 11
116.8183296332395
 21
-599.1557508616376
 31
0.0
  0
LINE
  5
BD
  8
0
  6
BYBLOCK
 62
     0
 10
116.8183296332395
 20
-599.1557508616376
 30
0.0
 11
116.8183296332395
 21
-574.1557508616376
 31
0.0
  0
LINE
  5
BE
  8
0
  6
BYBLOCK
 62
     0
 10
116.8183296332395
 20
-574.1557508616376
 30
0.0
 11
166.3396871208587
 21
-574.1557508616376
 31
0.0
  0
LINE
  5
BF
  8
0
  6
BYBLOCK
 62
     0
 10
166.3396871208587
 20
-574.1557508616376
 30
0.0
 11
166.3396871208587
 21
-518.1557508616376
 31
0.0
  0
LINE
  5
C0
  8
0
  6
BYBLOCK
 62
     0
 10
166.3396871208587
 20
-518.1557508616376
 30
0.0
 11
116.8183296332395
 21
-518.1557508616376
 31
0.0
  0
LINE
  5
C1
  8
0
  6
BYBLOCK
 62
     0
 10
116.8183296332395
 20
-518.1557508616376
 30
0.0
 11
116.8183296332395
 21
-493.1557508616376
 31
0.0
  0
LINE
  5
C2
  8
0
  6
BYBLOCK
 62
     0
 10
116.8183296332395
 20
-493.1557508616376
 30
0.0
 11
190.3396871208588
 21
-493.1557508616376
 31
0.0
  0
ARC
  5
C3
  8
0
  6
BYBLOCK
 62
     0
 10
190.3396871208588
 20
-498.1557508616376
 30
0.0
 40
5.000000000000002
 50
0.0
 51
90.0
  0
LINE
  5
C4
  8
0
  6
BYBLOCK
 62
     0
 10
195.3396871208588
 20
-498.1557508616376
 30
0.0
 11
195.3396871208587
 21
-513.1557508616377
 31
0.0
  0
CIRCLE
  5
C5
  8
0
  6
BYBLOCK
 62
     0
 10
178.8183296332395
 20
-546.1557508616376
 30
0.0
 40
5.999999999999996
  0
LINE
  5
C6
  8
0
  6
BYBLOCK
 62
     0
 10
153.8183296332395
 20
-580.6557508616376
 30
0.0
 11
153.8183296332395
 21
-592.6557508616376
 31
0.0
  0
LINE
  5
C7
  8
0
  6
BYBLOCK
 62
     0
 10
153.8183296332395
 20
-592.6557508616376
 30
0.0
 11
137.8183296332395
 21
-592.6557508616376
 31
0.0
  0
LINE
  5
C8
  8
0
  6
BYBLOCK
 62
     0
 10
137.8183296332395
 20
-592.6557508616376
 30
0.0
 11
137.8183296332395
 21
-580.6557508616376
 31
0.0
  0
LINE
  5
C9
  8
0
  6
BYBLOCK
 62
     0
 10
137.8183296332395
 20
-580.6557508616376
 30
0.0
 11
153.8183296332395
 21
-580.6557508616376
 31
0.0
  0
CIRCLE
  5
CA
  8
0
  6
BYBLOCK
 62
     0
 10
178.8183296332395
 20
-586.6557508616376
 30
0.0
 40
7.5
  0
LINE
  5
CB
  8
0
  6
BYBLOCK
 62
     0
 10
137.8183296332395
 20
-499.6557508616376
 30
0.0
 11
137.8183296332395
 21
-511.6557508616376
 31
0.0
  0
LINE
  5
CC
  8
0
  6
BYBLOCK
 62
     0
 10
137.8183296332395
 20
-511.6557508616376
 30
0.0
 11
153.8183296332395
 21
-511.6557508616376
 31
0.0
  0
LINE
  5
CD
  8
0
  6
BYBLOCK
 62
     0
 10
153.8183296332395
 20
-511.6557508616376
 30
0.0
 11
153.8183296332395
 21
-499.6557508616376
 31
0.0
  0
LINE
  5
CE
  8
0
  6
BYBLOCK
 62
     0
 10
153.8183296332395
 20
-499.6557508616376
 30
0.0
 11
137.8183296332395
 21
-499.6557508616376
 31
0.0
  0
CIRCLE
  5
CF
  8
0
  6
BYBLOCK
 62
     0
 10
98.14508487495695
 20
-547.3632999405312
 30
0.0
 40
7.5
  0
ARC
  5
D0
  8
0
  6
BYBLOCK
 62
     0
 10
86.62372738733774
 20
-539.8632999405312
 30
0.0
 40
4.999999999999996
 50
89.99999999999983
 51
180.0
  0
LINE
  5
D1
  8
0
  6
BYBLOCK
 62
     0
 10
86.62372738733774
 20
-534.8632999405312
 30
0.0
 11
86.62372738733774
 21
-478.8632999405312
 31
0.0
  0
ARC
  5
D2
  8
0
  6
BYBLOCK
 62
     0
 10
86.62372738733775
 20
-473.8632999405312
 30
0.0
 40
5.000000000000017
 50
180.0000000000006
 51
269.9999999999998
  0
LINE
  5
D3
  8
0
  6
BYBLOCK
 62
     0
 10
81.62372738733774
 20
-473.8632999405312
 30
0.0
 11
81.6237273873377
 21
-458.8632999405312
 31
0.0
  0
ARC
  5
D4
  8
0
  6
BYBLOCK
 62
     0
 10
86.6237273873377
 20
-458.8632999405312
 30
0.0
 40
5.0
 50
90.0
 51
180.0
  0
LINE
  5
D5
  8
0
  6
BYBLOCK
 62
     0
 10
86.6237273873377
 20
-453.8632999405312
 30
0.0
 11
160.145084874957
 21
-453.8632999405312
 31
0.0
  0
LINE
  5
D6
  8
0
  6
BYBLOCK
 62
     0
 10
160.145084874957
 20
-453.8632999405312
 30
0.0
 11
160.145084874957
 21
-478.8632999405312
 31
0.0
  0
LINE
  5
D7
  8
0
  6
BYBLOCK
 62
     0
 10
160.145084874957
 20
-478.8632999405312
 30
0.0
 11
110.6237273873377
 21
-478.8632999405312
 31
0.0
  0
LINE
  5
D8
  8
0
  6
BYBLOCK
 62
     0
 10
110.6237273873377
 20
-478.8632999405312
 30
0.0
 11
110.6237273873377
 21
-534.8632999405312
 31
0.0
  0
LINE
  5
D9
  8
0
  6
BYBLOCK
 62
     0
 10
110.6237273873377
 20
-534.8632999405312
 30
0.0
 11
160.145084874957
 21
-534.8632999405312
 31
0.0
  0
LINE
  5
DA
  8
0
  6
BYBLOCK
 62
     0
 10
160.145084874957
 20
-534.8632999405312
 30
0.0
 11
160.145084874957
 21
-559.8632999405312
 31
0.0
  0
LINE
  5
DB
  8
0
  6
BYBLOCK
 62
     0
 10
160.145084874957
 20
-559.8632999405312
 30
0.0
 11
86.6237273873377
 21
-559.8632999405312
 31
0.0
  0
ARC
  5
DC
  8
0
  6
BYBLOCK
 62
     0
 10
86.6237273873377
 20
-554.8632999405312
 30
0.0
 40
5.000000000000002
 50
180.0
 51
270.0
  0
LINE
  5
DD
  8
0
  6
BYBLOCK
 62
     0
 10
81.6237273873377
 20
-554.8632999405312
 30
0.0
 11
81.62372738733774
 21
-539.8632999405311
 31
0.0
  0
LINE
  5
DE
  8
0
  6
BYBLOCK
 62
     0
 10
123.145084874957
 20
-553.3632999405312
 30
0.0
 11
123.145084874957
 21
-541.3632999405312
 31
0.0
  0
LINE
  5
DF
  8
0
  6
BYBLOCK
 62
     0
 10
123.145084874957
 20
-541.3632999405312
 30
0.0
 11
139.145084874957
 21
-541.3632999405312
 31
0.0
  0
LINE
  5
E0
  8
0
  6
BYBLOCK
 62
     0
 10
139.145084874957
 20
-541.3632999405312
 30
0.0
 11
139.145084874957
 21
-553.3632999405312
 31
0.0
  0
LINE
  5
E1
  8
0
  6
BYBLOCK
 62
     0
 10
139.145084874957
 20
-553.3632999405312
 30
0.0
 11
123.145084874957
 21
-553.3632999405312
 31
0.0
  0
CIRCLE
  5
E2
  8
0
  6
BYBLOCK
 62
     0
 10
98.14508487495695
 20
-506.8632999405312
 30
0.0
 40
5.999999999999996
  0
LINE
  5
E3
  8
0
  6
BYBLOCK
 62
     0
 10
123.145084874957
 20
-472.3632999405312
 30
0.0
 11
123.145084874957
 21
-460.3632999405311
 31
0.0
  0
LINE
  5
E4
  8
0
  6
BYBLOCK
 62
     0
 10
123.145084874957
 20
-460.3632999405311
 30
0.0
 11
139.145084874957
 21
-460.3632999405311
 31
0.0
  0
LINE
  5
E5
  8
0
  6
BYBLOCK
 62
     0
 10
139.145084874957
 20
-460.3632999405311
 30
0.0
 11
139.145084874957
 21
-472.3632999405312
 31
0.0
  0
LINE
  5
E6
  8
0
  6
BYBLOCK
 62
     0
 10
139.145084874957
 20
-472.3632999405312
 30
0.0
 11
123.145084874957
 21
-472.3632999405312
 31
0.0
  0
CIRCLE
  5
E7
  8
0
  6
BYBLOCK
 62
     0
 10
98.14508487495695
 20
-466.3632999405312
 30
0.0
 40
7.5
  0
LINE
  5
E8
  8
0
  6
BYBLOCK
 62
     0
 10
180.3430311588785
 20
-607.7586319495982
 30
0.0
 11
30.34303115887846
 21
-607.7586319495982
 31
0.0
  0
LINE
  5
E9
  8
0
  6
BYBLOCK
 62
     0
 10
30.34303115887846
 20
-607.7586319495982
 30
0.0
 11
30.34303115887846
 21
-707.7586319495982
 31
0.0
  0
LINE
  5
EA
  8
0
  6
BYBLOCK
 62
     0
 10
30.34303115887846
 20
-707.7586319495982
 30
0.0
 11
180.3430311588785
 21
-707.7586319495982
 31
0.0
  0
LINE
  5
EB
  8
0
  6
BYBLOCK
 62
     0
 10
180.3430311588785
 20
-707.7586319495982
 30
0.0
 11
180.3430311588785
 21
-607.7586319495982
 31
0.0
  0
CIRCLE
  5
EC
  8
0
  6
BYBLOCK
 62
     0
 10
89.84303115887846
 20
-673.2586319495982
 30
0.0
 40
1.500000000000001
  0
CIRCLE
  5
ED
  8
0
  6
BYBLOCK
 62
     0
 10
120.8430311588785
 20
-673.2586319495982
 30
0.0
 40
1.499999999999999
  0
CIRCLE
  5
EE
  8
0
  6
BYBLOCK
 62
     0
 10
120.8430311588785
 20
-642.2586319495982
 30
0.0
 40
1.499999999999999
  0
CIRCLE
  5
EF
  8
0
  6
BYBLOCK
 62
     0
 10
89.84303115887846
 20
-642.2586319495982
 30
0.0
 40
1.500000000000001
  0
CIRCLE
  5
F0
  8
0
  6
BYBLOCK
 62
     0
 10
105.3430311588785
 20
-657.7586319495982
 30
0.0
 40
11.00000000000001
  0
LINE
  5
F1
  8
0
  6
BYBLOCK
 62
     0
 10
77.34303115887846
 20
-638.7586319495982
 30
0.0
 11
52.34303115887846
 21
-638.7586319495982
 31
0.0
  0
LINE
  5
F2
  8
0
  6
BYBLOCK
 62
     0
 10
52.34303115887846
 20
-638.7586319495982
 30
0.0
 11
52.34303115887846
 21
-626.7586319495982
 31
0.0
  0
LINE
  5
F3
  8
0
  6
BYBLOCK
 62
     0
 10
52.34303115887846
 20
-626.7586319495982
 30
0.0
 11
77.34303115887846
 21
-626.7586319495982
 31
0.0
  0
LINE
  5
F4
  8
0
  6
BYBLOCK
 62
     0
 10
77.34303115887846
 20
-626.7586319495982
 30
0.0
 11
77.34303115887846
 21
-638.7586319495982
 31
0.0
  0
LINE
  5
F5
  8
0
  6
BYBLOCK
 62
     0
 10
52.34303115887846
 20
-676.7586319495982
 30
0.0
 11
77.34303115887846
 21
-676.7586319495982
 31
0.0
  0
LINE
  5
F6
  8
0
  6
BYBLOCK
 62
     0
 10
77.34303115887846
 20
-676.7586319495982
 30
0.0
 11
77.34303115887846
 21
-688.7586319495982
 31
0.0
  0
LINE
  5
F7
  8
0
  6
BYBLOCK
 62
     0
 10
77.34303115887846
 20
-688.7586319495982
 30
0.0
 11
52.34303115887846
 21
-688.7586319495982
 31
0.0
  0
LINE
  5
F8
  8
0
  6
BYBLOCK
 62
     0
 10
52.34303115887846
 20
-688.7586319495982
 30
0.0
 11
52.34303115887846
 21
-676.7586319495982
 31
0.0
  0
LINE
  5
F9
  8
0
  6
BYBLOCK
 62
     0
 10
133.3430311588785
 20
-676.7586319495982
 30
0.0
 11
158.3430311588785
 21
-676.7586319495982
 31
0.0
  0
LINE
  5
FA
  8
0
  6
BYBLOCK
 62
     0
 10
158.3430311588785
 20
-676.7586319495982
 30
0.0
 11
158.3430311588785
 21
-688.7586319495982
 31
0.0
  0
LINE
  5
FB
  8
0
  6
BYBLOCK
 62
     0
 10
158.3430311588785
 20
-688.7586319495982
 30
0.0
 11
133.3430311588785
 21
-688.7586319495982
 31
0.0
  0
LINE
  5
FC
  8
0
  6
BYBLOCK
 62
     0
 10
133.3430311588785
 20
-688.7586319495982
 30
0.0
 11
133.3430311588785
 21
-676.7586319495982
 31
0.0
  0
LINE
  5
FD
  8
0
  6
BYBLOCK
 62
     0
 10
158.3430311588785
 20
-638.7586319495982
 30
0.0
 11
133.3430311588785
 21
-638.7586319495982
 31
0.0
  0
LINE
  5
FE
  8
0
  6
BYBLOCK
 62
     0
 10
133.3430311588785
 20
-638.7586319495982
 30
0.0
 11
133.3430311588785
 21
-626.7586319495982
 31
0.0
  0
LINE
  5
FF
  8
0
  6
BYBLOCK
 62
     0
 10
133.3430311588785
 20
-626.7586319495982
 30
0.0
 11
158.3430311588785
 21
-626.7586319495982
 31
0.0
  0
LINE
  5
100
  8
0
  6
BYBLOCK
 62
     0
 10
158.3430311588785
 20
-626.7586319495982
 30
0.0
 11
158.3430311588785
 21
-638.7586319495982
 31
0.0
  0
CIRCLE
  5
101
  8
0
  6
BYBLOCK
 62
     0
 10
105.3430311588785
 20
-622.7586319495982
 30
0.0
 40
6.400000000000006
  0
CIRCLE
  5
102
  8
0
  6
BYBLOCK
 62
     0
 10
60.34303115887846
 20
-657.7586319495982
 30
0.0
 40
7.499999999999999
  0
CIRCLE
  5
103
  8
0
  6
BYBLOCK
 62
     0
 10
150.3430311588785
 20
-657.7586319495982
 30
0.0
 40
7.5
  0
CIRCLE
  5
104
  8
0
  6
BYBLOCK
 62
     0
 10
105.3430311588785
 20
-692.7586319495982
 30
0.0
 40
6.400000000000006
  0
LINE
  5
105
  8
0
  6
BYBLOCK
 62
     0
 10
126.5930311588785
 20
-679.0086319495982
 30
0.0
 11
126.5930311588784
 21
-636.5086319495982
 31
0.0
  0
LINE
  5
106
  8
0
  6
BYBLOCK
 62
     0
 10
126.5930311588784
 20
-636.5086319495982
 30
0.0
 11
84.09303115887849
 21
-636.5086319495982
 31
0.0
  0
LINE
  5
107
  8
0
  6
BYBLOCK
 62
     0
 10
84.09303115887849
 20
-636.5086319495982
 30
0.0
 11
84.09303115887846
 21
-679.0086319495982
 31
0.0
  0
LINE
  5
108
  8
0
  6
BYBLOCK
 62
     0
 10
84.09303115887846
 20
-679.0086319495982
 30
0.0
 11
126.5930311588785
 21
-679.0086319495982
 31
0.0
  0
ARC
  5
109
  8
0
  6
BYBLOCK
 62
     0
 10
-152.2648155737705
 20
-291.7533709016394
 30
0.0
 40
5.999999999999998
 50
0.0
 51
90.0
  0
LINE
  5
10A
  8
0
  6
BYBLOCK
 62
     0
 10
-146.2648155737705
 20
-291.7533709016394
 30
0.0
 11
-146.2648155737705
 21
-399.7533709016394
 31
0.0
  0
ARC
  5
10B
  8
0
  6
BYBLOCK
 62
     0
 10
-152.2648155737705
 20
-399.7533709016394
 30
0.0
 40
5.999999999999972
 50
269.9999999999997
 51
0.0000000000005428
  0
LINE
  5
10C
  8
0
  6
BYBLOCK
 62
     0
 10
-152.2648155737705
 20
-405.7533709016394
 30
0.0
 11
-206.2648155737705
 21
-405.7533709016394
 31
0.0
  0
LINE
  5
10D
  8
0
  6
BYBLOCK
 62
     0
 10
-206.2648155737705
 20
-405.7533709016394
 30
0.0
 11
-206.2648155737705
 21
-395.7533709016394
 31
0.0
  0
LINE
  5
10E
  8
0
  6
BYBLOCK
 62
     0
 10
-206.2648155737705
 20
-395.7533709016394
 30
0.0
 11
-218.2648155737705
 21
-395.7533709016394
 31
0.0
  0
LINE
  5
10F
  8
0
  6
BYBLOCK
 62
     0
 10
-218.2648155737705
 20
-395.7533709016394
 30
0.0
 11
-218.2648155737705
 21
-370.7533709016394
 31
0.0
  0
LINE
  5
110
  8
0
  6
BYBLOCK
 62
     0
 10
-218.2648155737705
 20
-370.7533709016394
 30
0.0
 11
-206.2648155737705
 21
-370.7533709016394
 31
0.0
  0
LINE
  5
111
  8
0
  6
BYBLOCK
 62
     0
 10
-206.2648155737705
 20
-370.7533709016394
 30
0.0
 11
-206.2648155737705
 21
-320.7533709016394
 31
0.0
  0
LINE
  5
112
  8
0
  6
BYBLOCK
 62
     0
 10
-206.2648155737705
 20
-320.7533709016394
 30
0.0
 11
-218.2648155737705
 21
-320.7533709016394
 31
0.0
  0
LINE
  5
113
  8
0
  6
BYBLOCK
 62
     0
 10
-218.2648155737705
 20
-320.7533709016394
 30
0.0
 11
-218.2648155737705
 21
-295.7533709016394
 31
0.0
  0
LINE
  5
114
  8
0
  6
BYBLOCK
 62
     0
 10
-218.2648155737705
 20
-295.7533709016394
 30
0.0
 11
-206.2648155737705
 21
-295.7533709016394
 31
0.0
  0
LINE
  5
115
  8
0
  6
BYBLOCK
 62
     0
 10
-206.2648155737705
 20
-295.7533709016394
 30
0.0
 11
-206.2648155737705
 21
-285.7533709016394
 31
0.0
  0
LINE
  5
116
  8
0
  6
BYBLOCK
 62
     0
 10
-206.2648155737705
 20
-285.7533709016394
 30
0.0
 11
-152.2648155737705
 21
-285.7533709016394
 31
0.0
  0
CIRCLE
  5
117
  8
0
  6
BYBLOCK
 62
     0
 10
-176.2648155737705
 20
-386.2533709016394
 30
0.0
 40
7.5
  0
CIRCLE
  5
118
  8
0
  6
BYBLOCK
 62
     0
 10
-176.2648155737705
 20
-305.2533709016394
 30
0.0
 40
7.5
  0
CIRCLE
  5
119
  8
0
  6
BYBLOCK
 62
     0
 10
-176.2648155737705
 20
-345.7533709016394
 30
0.0
 40
5.0
  0
CIRCLE
  5
11A
  8
0
  6
BYBLOCK
 62
     0
 10
42.39473104508198
 20
-363.8231557377048
 30
0.0
 40
1.500000000000004
  0
CIRCLE
  5
11B
  8
0
  6
BYBLOCK
 62
     0
 10
42.39473104508198
 20
-332.8231557377048
 30
0.0
 40
1.500000000000004
  0
CIRCLE
  5
11C
  8
0
  6
BYBLOCK
 62
     0
 10
73.39473104508198
 20
-363.8231557377048
 30
0.0
 40
1.500000000000004
  0
CIRCLE
  5
11D
  8
0
  6
BYBLOCK
 62
     0
 10
73.39473104508198
 20
-332.8231557377048
 30
0.0
 40
1.500000000000004
  0
CIRCLE
  5
11E
  8
0
  6
BYBLOCK
 62
     0
 10
57.89473104508198
 20
-348.3231557377048
 30
0.0
 40
11.5
  0
CIRCLE
  5
11F
  8
0
  6
BYBLOCK
 62
     0
 10
57.89473104508198
 20
-307.8231557377048
 30
0.0
 40
7.5
  0
CIRCLE
  5
120
  8
0
  6
BYBLOCK
 62
     0
 10
57.89473104508198
 20
-388.8231557377048
 30
0.0
 40
7.5
  0
ARC
  5
121
  8
0
  6
BYBLOCK
 62
     0
 10
33.89473104508198
 20
-402.3231557377048
 30
0.0
 40
5.999999999999997
 50
180.0
 51
270.0
  0
LINE
  5
122
  8
0
  6
BYBLOCK
 62
     0
 10
27.89473104508198
 20
-402.3231557377048
 30
0.0
 11
27.89473104508198
 21
-294.3231557377048
 31
0.0
  0
ARC
  5
123
  8
0
  6
BYBLOCK
 62
     0
 10
33.89473104508198
 20
-294.3231557377048
 30
0.0
 40
6.0
 50
90.0
 51
180.0
  0
LINE
  5
124
  8
0
  6
BYBLOCK
 62
     0
 10
33.89473104508198
 20
-288.3231557377048
 30
0.0
 11
87.89473104508198
 21
-288.3231557377048
 31
0.0
  0
LINE
  5
125
  8
0
  6
BYBLOCK
 62
     0
 10
87.89473104508198
 20
-288.3231557377048
 30
0.0
 11
87.89473104508198
 21
-298.3231557377048
 31
0.0
  0
LINE
  5
126
  8
0
  6
BYBLOCK
 62
     0
 10
87.89473104508198
 20
-298.3231557377048
 30
0.0
 11
99.89473104508198
 21
-298.3231557377048
 31
0.0
  0
LINE
  5
127
  8
0
  6
BYBLOCK
 62
     0
 10
99.89473104508198
 20
-298.3231557377048
 30
0.0
 11
99.89473104508198
 21
-323.3231557377048
 31
0.0
  0
LINE
  5
128
  8
0
  6
BYBLOCK
 62
     0
 10
99.89473104508198
 20
-323.3231557377048
 30
0.0
 11
87.89473104508198
 21
-323.3231557377048
 31
0.0
  0
LINE
  5
129
  8
0
  6
BYBLOCK
 62
     0
 10
87.89473104508198
 20
-323.3231557377048
 30
0.0
 11
87.89473104508198
 21
-373.3231557377048
 31
0.0
  0
LINE
  5
12A
  8
0
  6
BYBLOCK
 62
     0
 10
87.89473104508198
 20
-373.3231557377048
 30
0.0
 11
99.89473104508198
 21
-373.3231557377048
 31
0.0
  0
LINE
  5
12B
  8
0
  6
BYBLOCK
 62
     0
 10
99.89473104508198
 20
-373.3231557377048
 30
0.0
 11
99.89473104508198
 21
-398.3231557377048
 31
0.0
  0
LINE
  5
12C
  8
0
  6
BYBLOCK
 62
     0
 10
99.89473104508198
 20
-398.3231557377048
 30
0.0
 11
87.89473104508198
 21
-398.3231557377048
 31
0.0
  0
LINE
  5
12D
  8
0
  6
BYBLOCK
 62
     0
 10
87.89473104508198
 20
-398.3231557377048
 30
0.0
 11
87.89473104508198
 21
-408.3231557377048
 31
0.0
  0
LINE
  5
12E
  8
0
  6
BYBLOCK
 62
     0
 10
87.89473104508198
 20
-408.3231557377048
 30
0.0
 11
33.89473104508198
 21
-408.3231557377048
 31
0.0
  0
ARC
  5
12F
  8
0
 10
-4.0
 20
16.0
 30
0.0
 40
6.0
 50
180.0
 51
270.0
  0
LINE
  5
130
  8
0
 10
-10.0
 20
39.0
 30
0.0
 11
-10.0
 21
16.0
 31
0.0
  0
ARC
  5
131
  8
0
 10
-16.0
 20
39.0
 30
0.0
 40
6.0
 50
0.0
 51
89.99999999999997
  0
LINE
  5
132
  8
0
 10
-104.0
 20
45.0
 30
0.0
 11
-16.0
 21
45.0
 31
0.0
  0
ARC
  5
133
  8
0
 10
-104.0
 20
39.0
 30
0.0
 40
6.0
 50
90.0
 51
180.0
  0
LINE
  5
134
  8
0
 10
-110.0
 20
16.0
 30
0.0
 11
-110.0
 21
39.0
 31
0.0
  0
ARC
  5
135
  8
0
 10
-116.0
 20
15.99999999999999
 30
0.0
 40
5.999999999999985
 50
270.0
 51
0.0000000000001357
  0
LINE
  5
136
  8
0
 10
-129.0
 20
10.0
 30
0.0
 11
-116.0
 21
10.0
 31
0.0
  0
ARC
  5
137
  8
0
 10
-129.0
 20
4.0
 30
0.0
 40
6.0
 50
90.0
 51
180.0
  0
LINE
  5
138
  8
0
 10
-135.0
 20
-106.6666666666667
 30
0.0
 11
-135.0
 21
4.000000000000003
 31
0.0
  0
LINE
  5
139
  8
0
 10
-189.0
 20
-106.6666666666667
 30
0.0
 11
-135.0
 21
-106.6666666666667
 31
0.0
  0
ARC
  5
13A
  8
0
 10
-189.0
 20
-112.6666666666667
 30
0.0
 40
6.0
 50
90.0
 51
180.0
  0
LINE
  5
13B
  8
0
 10
-195.0
 20
-250.6666666666666
 30
0.0
 11
-195.0
 21
-112.6666666666667
 31
0.0
  0
LINE
  5
13C
  8
0
 10
-141.0
 20
-256.6666666666666
 30
0.0
 11
-189.0
 21
-256.6666666666666
 31
0.0
  0
ARC
  5
13D
  8
0
 10
-141.0
 20
-262.6666666666666
 30
0.0
 40
6.000000000000009
 50
0.0
 51
89.99999999999973
  0
LINE
  5
13E
  8
0
 10
-135.0
 20
-437.3333333333334
 30
0.0
 11
-135.0
 21
-262.6666666666666
 31
0.0
  0
ARC
  5
13F
  8
0
 10
-141.0000000000001
 20
-437.3333333333333
 30
0.0
 40
6.000000000000076
 50
270.0000000000005
 51
359.9999999999994
  0
ARC
  5
140
  8
0
 10
-189.0
 20
-587.3333333333334
 30
0.0
 40
6.0
 50
180.0
 51
270.0
  0
LINE
  5
141
  8
0
 10
-141.0
 20
-593.3333333333335
 30
0.0
 11
-189.0
 21
-593.3333333333334
 31
0.0
  0
LINE
  5
142
  8
0
 10
8.999999999999986
 20
-710.0
 30
0.0
 11
-129.0
 21
-710.0
 31
0.0
  0
LINE
  5
143
  8
0
 10
69.0
 20
-593.3333333333334
 30
0.0
 11
15.0
 21
-593.3333333333334
 31
0.0
  0
ARC
  5
144
  8
0
 10
69.0
 20
-587.3333333333334
 30
0.0
 40
6.000000000000007
 50
270.0
 51
0.0
  0
ARC
  5
145
  8
0
 10
69.0
 20
-449.3333333333334
 30
0.0
 40
6.0
 50
0.0
 51
90.0
  0
ARC
  5
146
  8
0
 10
21.00000000000003
 20
-262.6666666666666
 30
0.0
 40
6.000000000000009
 50
90.0000000000002
 51
180.0
  0
LINE
  5
147
  8
0
 10
69.0
 20
-256.6666666666666
 30
0.0
 11
21.00000000000001
 21
-256.6666666666666
 31
0.0
  0
ARC
  5
148
  8
0
 10
69.0
 20
-250.6666666666666
 30
0.0
 40
6.000000000000007
 50
270.0
 51
0.0
  0
LINE
  5
149
  8
0
 10
75.00000000000001
 20
-112.6666666666667
 30
0.0
 11
75.00000000000001
 21
-250.6666666666666
 31
0.0
  0
ARC
  5
14A
  8
0
 10
69.0
 20
-112.6666666666667
 30
0.0
 40
6.000000000000014
 50
0.0
 51
90.0
  0
LINE
  5
14B
  8
0
 10
21.0
 20
-106.6666666666667
 30
0.0
 11
69.0
 21
-106.6666666666666
 31
0.0
  0
LINE
  5
14C
  8
0
 10
15.0
 20
4.000000000000057
 30
0.0
 11
15.0
 21
-100.6666666666666
 31
0.0
  0
ARC
  5
14D
  8
0
 10
8.999999999999998
 20
3.999999999999995
 30
0.0
 40
6.000000000000002
 50
0.0000000000005852
 51
89.99999999999999
  0
LINE
  5
14E
  8
0
 10
-110.0
 20
-12.0
 30
0.0
 11
-110.0
 21
0.0
 31
0.0
  0
LINE
  5
14F
  8
0
 10
-85.0
 20
-12.0
 30
0.0
 11
-110.0
 21
-12.0
 31
0.0
  0
LINE
  5
150
  8
0
 10
-85.0
 20
0.0
 30
0.0
 11
-85.0
 21
-12.0
 31
0.0
  0
LINE
  5
151
  8
0
 10
-110.0
 20
0.0
 30
0.0
 11
-85.0
 21
0.0
 31
0.0
  0
LINE
  5
152
  8
0
 10
-35.0
 20
-12.0
 30
0.0
 11
-35.0
 21
0.0
 31
0.0
  0
LINE
  5
153
  8
0
 10
-10.0
 20
-12.0
 30
0.0
 11
-35.0
 21
-12.0
 31
0.0
  0
LINE
  5
154
  8
0
 10
-35.0
 20
0.0
 30
0.0
 11
-10.0
 21
0.0
 31
0.0
  0
LINE
  5
155
  8
0
 10
-10.0
 20
-653.0
 30
0.0
 11
-10.0
 21
-665.0
 31
0.0
  0
LINE
  5
156
  8
0
 10
-35.0
 20
-653.0
 30
0.0
 11
-10.0
 21
-653.0
 31
0.0
  0
LINE
  5
157
  8
0
 10
-35.0
 20
-665.0
 30
0.0
 11
-35.0
 21
-653.0
 31
0.0
  0
LINE
  5
158
  8
0
 10
-10.0
 20
-665.0
 30
0.0
 11
-35.0
 21
-665.0
 31
0.0
  0
LINE
  5
159
  8
0
 10
-85.0
 20
-653.0
 30
0.0
 11
-85.0
 21
-665.0
 31
0.0
  0
LINE
  5
15A
  8
0
 10
-110.0
 20
-653.0
 30
0.0
 11
-85.0
 21
-653.0
 31
0.0
  0
LINE
  5
15B
  8
0
 10
-110.0
 20
-665.0
 30
0.0
 11
-110.0
 21
-653.0
 31
0.0
  0
LINE
  5
15C
  8
0
 10
-85.0
 20
-665.0
 30
0.0
 11
-110.0
 21
-665.0
 31
0.0
  0
LINE
  5
15D
  8
0
 10
-3.999999999999999
 20
10.0
 30
0.0
 11
8.999999999999995
 21
9.999999999999995
 31
0.0
  0
ARC
  5
15E
  8
0
 10
-188.9999999999999
 20
-250.6666666666666
 30
0.0
 40
6.000000000000071
 50
180.0000000000008
 51
269.9999999999994
  0
LINE
  5
15F
  8
0
 10
-189.0
 20
-443.3333333333334
 30
0.0
 11
-141.0
 21
-443.3333333333334
 31
0.0
  0
ARC
  5
160
  8
0
 10
-188.9999999999999
 20
-449.3333333333334
 30
0.0
 40
6.000000000000071
 50
90.00000000000082
 51
179.9999999999995
  0
LINE
  5
161
  8
0
 10
-195.0
 20
-587.3333333333334
 30
0.0
 11
-195.0
 21
-449.3333333333334
 31
0.0
  0
ARC
  5
162
  8
0
 10
-141.0
 20
-599.3333333333334
 30
0.0
 40
6.0
 50
0.0
 51
90.0
  0
LINE
  5
163
  8
0
 10
-135.0
 20
-704.0
 30
0.0
 11
-135.0
 21
-599.3333333333334
 31
0.0
  0
ARC
  5
164
  8
0
 10
9.000000000000062
 20
-704.0
 30
0.0
 40
5.999999999999972
 50
269.9999999999993
 51
0.0
  0
LINE
  5
165
  8
0
 10
15.0
 20
-593.3333333333334
 30
0.0
 11
15.00000000000003
 21
-704.0
 31
0.0
  0
LINE
  5
166
  8
0
 10
75.00000000000001
 20
-449.3333333333334
 30
0.0
 11
75.00000000000006
 21
-587.3333333333334
 31
0.0
  0
LINE
  5
167
  8
0
 10
15.0
 20
-262.6666666666666
 30
0.0
 11
15.0
 21
-437.3333333333334
 31
0.0
  0
ARC
  5
168
  8
0
 10
21.0
 20
-100.6666666666667
 30
0.0
 40
5.999999999999996
 50
179.9999999999997
 51
270.0
  0
LINE
  5
169
  8
0
 10
-10.0
 20
-665.0
 30
0.0
 11
-10.0
 21
-653.0
 31
0.0
  0
LINE
  5
16A
  8
0
 10
-35.0
 20
-665.0
 30
0.0
 11
-10.0
 21
-665.0
 31
0.0
  0
LINE
  5
16B
  8
0
 10
-35.0
 20
-653.0
 30
0.0
 11
-35.0
 21
-665.0
 31
0.0
  0
LINE
  5
16C
  8
0
 10
-10.0
 20
-653.0
 30
0.0
 11
-35.0
 21
-653.0
 31
0.0
  0
LINE
  5
16D
  8
0
 10
-85.0
 20
-665.0
 30
0.0
 11
-85.0
 21
-653.0
 31
0.0
  0
LINE
  5
16E
  8
0
 10
-110.0
 20
-665.0
 30
0.0
 11
-85.0
 21
-665.0
 31
0.0
  0
LINE
  5
16F
  8
0
 10
-110.0
 20
-653.0
 30
0.0
 11
-110.0
 21
-665.0
 31
0.0
  0
LINE
  5
170
  8
0
 10
-85.0
 20
-653.0
 30
0.0
 11
-110.0
 21
-653.0
 31
0.0
  0
ENDSEC
  0
EOF
